<svg width="28" height="28" viewBox="0 0 28 28" fill="none" xmlns="http://www.w3.org/2000/svg">
<path d="M27.0727 26.2556H21.8216H20.5088C17.34 26.2556 14.762 23.6776 14.762 20.5088C14.762 17.34 17.34 14.762 20.5088 14.762C23.6776 14.762 26.2556 17.34 26.2556 20.5088C26.2556 21.2647 25.6407 21.8796 24.8847 21.8796C24.1288 21.8796 23.5139 21.2647 23.5139 20.5088C23.5139 18.8518 22.1658 17.5037 20.5088 17.5037C18.8518 17.5037 17.5038 18.8518 17.5038 20.5088C17.5038 22.1658 18.8518 23.5138 20.5088 23.5138C21.3706 23.5138 22.1483 23.1486 22.6968 22.5655C23.2452 23.1486 24.0229 23.5138 24.8847 23.5138C26.5417 23.5138 27.8898 22.1658 27.8898 20.5088C27.8898 16.4389 24.5787 13.1278 20.5088 13.1278C19.8663 13.1278 19.2429 13.2105 18.6483 13.3655C19.5119 12.0153 20.0131 10.412 20.0131 8.69376C20.0131 3.89999 16.1131 0 11.3194 0C6.5256 0 2.62561 3.89999 2.62561 8.69376C2.62561 12.0787 4.57027 15.0177 7.40092 16.4529C3.08481 18.0505 0 22.2079 0 27.0727C0 27.5239 0.365835 27.8898 0.817083 27.8898H20.5088H21.8216H27.0727C27.5239 27.8898 27.8898 27.5239 27.8898 27.0727C27.8898 26.6214 27.5239 26.2556 27.0727 26.2556ZM20.5088 21.8796C19.7529 21.8796 19.1379 21.2647 19.1379 20.5088C19.1379 19.7529 19.7529 19.1379 20.5088 19.1379C21.2647 19.1379 21.8797 19.7529 21.8797 20.5088C21.8797 21.2647 21.2647 21.8796 20.5088 21.8796ZM4.25978 8.69376C4.25978 4.80107 7.42668 1.63417 11.3194 1.63417C15.2121 1.63417 18.379 4.80107 18.379 8.69376C18.379 12.5865 15.2121 15.7534 11.3194 15.7534C7.42668 15.7534 4.25978 12.5864 4.25978 8.69376ZM1.66832 26.2556C2.08449 21.296 6.25406 17.3875 11.3194 17.3875C12.1258 17.3875 12.9203 17.4862 13.6916 17.6805C13.3287 18.552 13.1278 19.5073 13.1278 20.5088C13.1278 22.8286 14.2039 24.9015 15.8828 26.2556H1.66832Z" fill="black"/>
</svg>
