<svg width="28" height="28" viewBox="0 0 28 28" fill="none" xmlns="http://www.w3.org/2000/svg">
<path d="M23.75 2.25H8C7.20511 2.25247 6.44349 2.56934 5.88141 3.13141C5.31934 3.69349 5.00247 4.45511 5 5.25V26C5 26.1989 5.07902 26.3897 5.21967 26.5303C5.36032 26.671 5.55109 26.75 5.75 26.75H22.25C22.4489 26.75 22.6397 26.671 22.7803 26.5303C22.921 26.3897 23 26.1989 23 26C23 25.8011 22.921 25.6103 22.7803 25.4697C22.6397 25.329 22.4489 25.25 22.25 25.25H6.5C6.5 24.8522 6.65804 24.4706 6.93934 24.1893C7.22064 23.908 7.60218 23.75 8 23.75H23.75C23.9489 23.75 24.1397 23.671 24.2803 23.5303C24.421 23.3897 24.5 23.1989 24.5 23V3C24.5 2.80109 24.421 2.61032 24.2803 2.46967C24.1397 2.32902 23.9489 2.25 23.75 2.25ZM15.5 3.75H20V10.5L18.2 9.15C18.0696 9.05405 17.9119 9.0023 17.75 9.0023C17.5881 9.0023 17.4304 9.05405 17.3 9.15L15.5 10.5V3.75ZM23 22.25H8C7.4734 22.2512 6.95628 22.3902 6.5 22.6531V5.25C6.5 4.85218 6.65804 4.47064 6.93934 4.18934C7.22064 3.90804 7.60218 3.75 8 3.75H14V12C14 12.1393 14.0388 12.2758 14.112 12.3943C14.1852 12.5128 14.29 12.6085 14.4146 12.6708C14.5392 12.7331 14.6786 12.7595 14.8174 12.747C14.9561 12.7345 15.0886 12.6836 15.2 12.6L17.75 10.6875L20.3 12.6C20.4288 12.6993 20.5874 12.7521 20.75 12.75C20.8663 12.7475 20.9811 12.722 21.0875 12.675C21.211 12.6104 21.3146 12.5135 21.3872 12.3946C21.4599 12.2757 21.4989 12.1393 21.5 12V3.75H23V22.25Z" fill="black"/>
</svg>
