<svg width="32" height="26" viewBox="0 0 32 26" fill="none" xmlns="http://www.w3.org/2000/svg">
<path d="M31.3765 6.9504C31.7507 6.82084 32.0004 6.47571 32 6.08887C31.9995 5.70203 31.7489 5.35751 31.3744 5.22881L16.3119 0.0520531C16.1101 -0.017351 15.8899 -0.017351 15.6881 0.0520531L0.625626 5.22881C0.251126 5.35745 0.000500749 5.70203 7.49189e-07 6.08887C-0.000499251 6.47571 0.249313 6.82084 0.623501 6.9504L6.59031 9.01669V14.9737C6.59031 15.9569 7.64325 16.7883 9.71988 17.4448C11.5299 18.0171 13.7603 18.3323 16.0001 18.3323C18.2398 18.3323 20.4701 18.0171 22.2803 17.4448C24.3569 16.7883 25.4098 15.9569 25.4098 14.9737V9.01669L27.8734 8.16357V16.418C26.7778 16.7954 25.9906 17.8138 25.9906 19.0086C25.9906 20.2034 26.7778 21.2219 27.8734 21.5992V25.0868C27.8734 25.5911 28.2931 26 28.8109 26C29.3286 26 29.7484 25.5911 29.7484 25.0868V21.5992C30.8439 21.2219 31.6312 20.2034 31.6312 19.0086C31.6312 17.8139 30.8439 16.7954 29.7484 16.418V7.51421L31.3765 6.9504ZM28.8108 19.9294C28.2896 19.9294 27.8655 19.5163 27.8655 19.0086C27.8655 18.5008 28.2896 18.0877 28.8108 18.0877C29.3321 18.0877 29.7561 18.5008 29.7561 19.0086C29.7561 19.5163 29.3321 19.9294 28.8108 19.9294ZM16 1.88158L28.2543 6.09326L16 10.3368L3.74569 6.09319L16 1.88158ZM23.5347 14.836C23.3551 15.0125 22.7118 15.4351 21.26 15.8385C19.7112 16.2689 17.8431 16.5059 16 16.5059C14.1569 16.5059 12.2889 16.2689 10.74 15.8385C9.28819 15.4351 8.64494 15.0125 8.46525 14.836V9.66599L15.6859 12.1665C15.7875 12.2017 15.8938 12.2193 15.9999 12.2193C16.1062 12.2193 16.2124 12.2017 16.3139 12.1665L23.5346 9.66599V14.836H23.5347Z" fill="black"/>
</svg>
