<svg width="60" height="58" viewBox="0 0 60 58" fill="none" xmlns="http://www.w3.org/2000/svg">
<path d="M30 0C13.425 0 0 13.3146 0 29.7359C0 42.8765 8.595 54.0199 20.5125 57.9487C22.0125 58.2286 22.5625 57.3082 22.5625 56.5189C22.5625 55.8128 22.5375 53.9417 22.525 51.4629C14.18 53.2558 12.42 47.4736 12.42 47.4736C11.055 44.0415 9.0825 43.1236 9.0825 43.1236C6.365 41.2803 9.2925 41.3181 9.2925 41.3181C12.305 41.5249 13.8875 44.382 13.8875 44.382C16.5625 48.9286 20.91 47.6148 22.625 46.8557C22.895 44.9317 23.6675 43.6229 24.525 42.879C17.8625 42.1351 10.86 39.5781 10.86 28.1851C10.86 24.9396 12.0225 22.2868 13.9475 20.2064C13.61 19.4549 12.5975 16.4314 14.21 12.3362C14.21 12.3362 16.7225 11.5393 22.46 15.3849C24.86 14.7242 27.41 14.3964 29.96 14.3813C32.51 14.3964 35.06 14.7242 37.46 15.3849C43.16 11.5393 45.6725 12.3362 45.6725 12.3362C47.285 16.4314 46.2725 19.4549 45.9725 20.2064C47.885 22.2868 49.0475 24.9396 49.0475 28.1851C49.0475 39.6084 42.035 42.1225 35.36 42.8538C36.41 43.7465 37.385 45.5697 37.385 48.3562C37.385 52.3354 37.3475 55.5329 37.3475 56.4987C37.3475 57.2779 37.8725 58.2084 39.41 57.9109C51.4125 54.0073 60 42.8563 60 29.7359C60 13.3146 46.5675 0 30 0Z" fill="white"/>
</svg>
