<svg width="27" height="27" viewBox="0 0 27 27" fill="none" xmlns="http://www.w3.org/2000/svg">
<path d="M22.7803 3.9111C20.2637 1.38904 16.9082 0 13.3457 0C9.78321 0 6.42772 1.38904 3.9111 3.9111C1.39449 6.43317 0 9.78321 0 13.3457C0 16.9082 1.38904 20.2637 3.9111 22.7803C6.43317 25.2969 9.78321 26.6914 13.3457 26.6914C16.9082 26.6914 20.2637 25.3023 22.7803 22.7803C25.2969 20.2582 26.6914 16.9082 26.6914 13.3457C26.6914 9.78321 25.3023 6.42772 22.7803 3.9111V3.9111ZM25.4821 12.7465H20.3072C20.2582 10.6874 19.9695 8.70466 19.4629 6.9452C20.4489 6.43861 21.3694 5.80129 22.2138 5.04957C24.1203 7.08683 25.335 9.77776 25.4821 12.7465ZM13.9449 13.9449H19.1143C19.0707 15.8405 18.8092 17.6544 18.3571 19.2777C16.9626 18.7166 15.4755 18.3898 13.9449 18.319V13.9449V13.9449ZM21.3531 4.21615C20.6559 4.83168 19.8932 5.35462 19.0871 5.79039C18.8801 5.21299 18.6458 4.66827 18.3844 4.15623C17.8669 3.13215 17.2786 2.29328 16.6304 1.65051C18.4007 2.1462 20.0076 3.0341 21.3531 4.21615ZM13.9449 1.38359C15.1923 1.6614 16.3689 2.81076 17.3167 4.68461C17.5727 5.1912 17.8015 5.73047 18.0031 6.30243C16.723 6.83081 15.3557 7.1413 13.9449 7.21212V1.38359ZM18.3626 7.4518C18.8092 9.06417 19.0653 10.8672 19.1088 12.7519H13.9449V8.41595C15.481 8.34514 16.9681 8.01286 18.3626 7.4518V7.4518ZM12.7465 12.7465H7.57708C7.62066 10.8618 7.87668 9.05872 8.32335 7.44635C9.71784 8.01286 11.2104 8.33969 12.741 8.40506V12.7465H12.7465ZM12.7519 1.38359V7.21212C11.3411 7.1413 9.96841 6.83081 8.69376 6.30243C8.89531 5.73047 9.12409 5.1912 9.38011 4.68461C10.3279 2.81076 11.5045 1.6614 12.7519 1.38359V1.38359ZM10.0665 1.65051C9.41824 2.29328 8.82994 3.1376 8.31246 4.15623C8.05644 4.66827 7.82221 5.21299 7.60976 5.79039C6.80358 5.35462 6.04641 4.83168 5.34372 4.21615C6.68918 3.0341 8.29611 2.1462 10.0665 1.65051ZM4.48306 5.04957C5.32738 5.80129 6.24796 6.43317 7.23391 6.9452C6.72732 8.7101 6.43317 10.6874 6.38959 12.7465H1.21473C1.3618 9.77776 2.57653 7.08683 4.48306 5.04957V5.04957ZM1.21473 13.9449H6.38959C6.43861 16.0203 6.73276 18.0085 7.2448 19.7789C6.2643 20.2854 5.34372 20.9119 4.50485 21.6636C2.58198 19.6209 1.3618 16.9245 1.21473 13.9449V13.9449ZM5.36551 22.497C6.06275 21.8869 6.81992 21.364 7.62066 20.9337C7.82765 21.4947 8.05644 22.034 8.31246 22.5351C8.82994 23.5592 9.41824 24.3981 10.0665 25.0463C8.30701 24.5506 6.70553 23.6682 5.36551 22.497ZM12.7519 25.3078C11.5045 25.03 10.3279 23.8806 9.38011 22.0068C9.12954 21.5111 8.9062 20.9827 8.70466 20.4216C9.97931 19.8932 11.3466 19.5828 12.7519 19.5174V25.3078V25.3078ZM8.33969 19.2777C7.88757 17.6544 7.62611 15.8405 7.58253 13.9449H12.7519V18.319C11.2213 18.3844 9.73418 18.7112 8.33969 19.2777ZM13.9503 25.3078V19.5174C15.3557 19.5882 16.723 19.8932 17.9976 20.4216C17.7961 20.9827 17.5727 21.5111 17.3222 22.0068C16.3743 23.8806 15.1977 25.03 13.9503 25.3078V25.3078ZM16.6358 25.0409C17.284 24.3981 17.8723 23.5538 18.3898 22.5297C18.6458 22.0286 18.8746 21.4893 19.0816 20.9282C19.8823 21.3585 20.6395 21.8815 21.3368 22.4916C19.9967 23.6682 18.3953 24.5506 16.6358 25.0409V25.0409ZM22.2029 21.6636C21.364 20.9173 20.4434 20.2854 19.4629 19.7789C19.975 18.0085 20.2691 16.0148 20.3181 13.9449H25.493C25.3405 16.9245 24.1203 19.6209 22.2029 21.6636V21.6636Z" fill="#231F20"/>
</svg>
