<svg width="28" height="28" viewBox="0 0 28 28" fill="none" xmlns="http://www.w3.org/2000/svg">
<path d="M13.9445 3.26715C13.4933 3.26715 13.1274 3.63299 13.1274 4.08423C13.1274 4.53548 13.4933 4.90132 13.9445 4.90132C16.6482 4.90132 18.8478 7.10058 18.8478 9.80381C18.8478 10.2551 19.2137 10.6209 19.6649 10.6209C20.1162 10.6209 20.482 10.2551 20.482 9.80381C20.482 6.1995 17.5493 3.26715 13.9445 3.26715Z" fill="black"/>
<path d="M11.8389 0.218879C8.14735 0.99026 5.1541 3.95485 4.36649 7.66937C3.70144 10.806 4.52097 13.955 6.61494 16.309C7.63852 17.4597 8.22552 18.9785 8.22552 20.4804V22.1145C8.22552 23.2018 8.9373 24.1255 9.91922 24.4454C10.2421 26.3533 11.8981 27.8885 13.9451 27.8885C15.9916 27.8885 17.648 26.3538 17.971 24.4454C18.9529 24.1255 19.6647 23.2018 19.6647 22.1145V20.4803C19.6647 18.9755 20.2536 17.4749 21.3229 16.2549C22.8881 14.4693 23.7501 12.1782 23.7501 9.8038C23.7501 3.61767 18.0878 -1.0866 11.8389 0.218879ZM13.9451 26.2544C12.8948 26.2544 11.9739 25.5317 11.6338 24.5603H16.2563C15.9163 25.5317 14.9954 26.2544 13.9451 26.2544ZM18.0305 22.1145C18.0305 22.5651 17.664 22.9316 17.2134 22.9316H10.6768C10.2262 22.9316 9.85968 22.5651 9.85968 22.1145V21.2974H18.0305V22.1145ZM20.094 15.1779C18.9545 16.478 18.2534 18.0457 18.0754 19.6633H9.8149C9.63722 18.0448 8.9379 16.4617 7.83604 15.2229C6.09086 13.261 5.40892 10.6314 5.96514 8.00835C6.61439 4.94625 9.10922 2.45878 12.1732 1.81856C17.4039 0.72547 22.1159 4.65357 22.1159 9.8038C22.1159 11.7818 21.3979 13.6903 20.094 15.1779Z" fill="black"/>
<path d="M2.45125 9.80377H0.817083C0.365835 9.80377 0 10.1696 0 10.6209C0 11.0721 0.365835 11.4379 0.817083 11.4379H2.45125C2.9025 11.4379 3.26833 11.0721 3.26833 10.6209C3.26833 10.1696 2.9025 9.80377 2.45125 9.80377Z" fill="black"/>
<path d="M2.79011 5.71833L1.63459 4.56281C1.31554 4.24371 0.798168 4.24371 0.47907 4.56281C0.159972 4.88191 0.159972 5.39923 0.47907 5.71833L1.63459 6.87385C1.95363 7.19294 2.47101 7.193 2.79011 6.87385C3.1092 6.55475 3.1092 6.03743 2.79011 5.71833Z" fill="black"/>
<path d="M2.79011 14.3679C2.47101 14.0488 1.95363 14.0488 1.63459 14.3679L0.47907 15.5234C0.159972 15.8425 0.159972 16.3598 0.47907 16.6789C0.798113 16.998 1.31549 16.9981 1.63459 16.6789L2.79011 15.5234C3.1092 15.2043 3.1092 14.687 2.79011 14.3679Z" fill="black"/>
<path d="M27.0728 9.80377H25.4387C24.9874 9.80377 24.6216 10.1696 24.6216 10.6209C24.6216 11.0721 24.9874 11.4379 25.4387 11.4379H27.0728C27.5241 11.4379 27.8899 11.0721 27.8899 10.6209C27.8899 10.1696 27.5241 9.80377 27.0728 9.80377Z" fill="black"/>
<path d="M27.4117 4.56281C27.0926 4.24371 26.5753 4.24371 26.2562 4.56281L25.1007 5.71833C24.7816 6.03743 24.7816 6.55475 25.1007 6.87385C25.4197 7.19289 25.9371 7.19294 26.2562 6.87385L27.4117 5.71833C27.7308 5.39923 27.7308 4.88191 27.4117 4.56281Z" fill="black"/>
<path d="M27.4117 15.5234L26.2562 14.3679C25.9371 14.0488 25.4198 14.0488 25.1007 14.3679C24.7816 14.687 24.7816 15.2043 25.1007 15.5234L26.2562 16.6789C26.5752 16.9979 27.0926 16.998 27.4117 16.6789C27.7308 16.3598 27.7308 15.8425 27.4117 15.5234Z" fill="black"/>
</svg>
